<?xml version="1.0" encoding="UTF-8"?>
<svg width="32" height="32" viewBox="0 0 280 295" fill="none" xmlns="http://www.w3.org/2000/svg">
  <path d="M54.1 14.9C43.5 17.5 31.3 31.9 28.6 42.5L47.7 65.3C52.1 60.1 57.8 56.4 64.2 54.8L61.6 24.1C61.2 19.3 58.9 13.7 54.1 14.9Z" fill="#A8753A"/>
  <path d="M225.9 14.9C236.5 17.5 248.7 31.9 251.4 42.5L232.3 65.3C227.9 60.1 222.2 56.4 215.8 54.8L218.4 24.1C218.8 19.3 221.1 13.7 225.9 14.9Z" fill="#A8753A"/>

  <path d="M57.6 26.6C51.3 28.2 44.1 36.8 42.4 43.1L51.8 56.6C54.4 53.5 57.8 51.3 61.7 50.4L61.1 31.1C60.8 28.2 59.4 26.2 57.6 26.6Z" fill="#FFDADA"/>
  <path d="M222.4 26.6C228.7 28.2 235.9 36.8 237.6 43.1L228.2 56.6C225.6 53.5 222.2 51.3 218.3 50.4L218.9 31.1C219.2 28.2 220.6 26.2 222.4 26.6Z" fill="#FFDADA"/>

  <circle cx="140" cy="140" r="110" stroke="#E8D5B0" stroke-width="12" fill="none"/>
  <path d="M140 30 A110 110 0 1 1 61.9 218.1" stroke="#C17F3A" stroke-width="20" stroke-linecap="round" fill="none"/>

  <circle cx="140" cy="140" r="105" fill="#FCD27A" stroke="#C9965A" stroke-width="10"/>

  <circle cx="110" cy="115" r="11" fill="#5C4429"/>
  <circle cx="170" cy="115" r="11" fill="#5C4429"/>

  <path d="M132 145C132 142.8 133.8 141 136 141H144C146.2 141 148 142.8 148 145V145C148 148.3 145.3 151 142 151H138C134.7 151 132 148.3 132 145V145Z" fill="#A88053"/>

  <path d="M106 170C106 186.6 121.2 200 140 200C158.8 200 174 186.6 174 170" stroke="#8B5035" stroke-width="8" stroke-linecap="round" fill="none"/>

  <g stroke="#4B5563" stroke-width="5" stroke-linecap="round" opacity="0.4">
    <line x1="85" y1="135" x2="45" y2="125" transform="rotate(15 85 135)"/>
    <line x1="85" y1="150" x2="45" y2="150"/>
    <line x1="85" y1="165" x2="45" y2="175" transform="rotate(-15 85 165)"/>
    <line x1="195" y1="135" x2="235" y2="125" transform="rotate(-15 195 135)"/>
    <line x1="195" y1="150" x2="235" y2="150"/>
    <line x1="195" y1="165" x2="235" y2="175" transform="rotate(15 195 165)"/>
  </g>
</svg>
